<?xml version="1.0" standalone="no"?>
<!DOCTYPE svg PUBLIC "-//W3C//DTD SVG 20010904//EN"
 "http://www.w3.org/TR/2001/REC-SVG-20010904/DTD/svg10.dtd">
<svg version="1.0" xmlns="http://www.w3.org/2000/svg"
 width="226.000000pt" height="270.000000pt" viewBox="0 0 226.000000 270.000000"
 preserveAspectRatio="xMidYMid meet">

<g transform="translate(0.000000,270.000000) scale(0.100000,-0.100000)"
fill="#000000" stroke="none">
<path d="M712 2624 c-18 -10 -45 -33 -60 -52 -23 -30 -27 -46 -27 -97 0 -51 4
-67 27 -97 37 -49 89 -71 149 -66 154 15 203 207 76 302 -36 27 -122 32 -165
10z"/>
<path d="M986 2604 c-9 -23 -7 -247 2 -262 7 -9 43 -12 148 -10 l139 3 0 140
0 140 -141 3 c-123 2 -142 0 -148 -14z"/>
<path d="M1334 2607 c-2 -7 -3 -71 -2 -143 l3 -129 145 0 145 0 0 140 0 140
-143 3 c-111 2 -144 0 -148 -11z"/>
<path d="M644 2267 c-2 -7 -3 -74 -2 -148 l3 -134 140 0 140 0 0 145 0 145
-138 3 c-107 2 -139 0 -143 -11z"/>
<path d="M992 2268 c-18 -18 -17 -262 2 -277 9 -8 57 -11 147 -9 l134 3 0 145
0 145 -135 3 c-97 2 -139 -1 -148 -10z"/>
<path d="M647 1924 c-4 -4 -7 -69 -7 -145 0 -164 -15 -151 165 -147 l120 3 0
145 0 145 -136 3 c-74 1 -138 -1 -142 -4z"/>
<path d="M986 1914 c-12 -30 -7 -259 6 -272 14 -14 255 -17 276 -4 9 7 12 43
10 148 l-3 139 -141 3 c-123 2 -142 0 -148 -14z"/>
<path d="M1337 1923 c-4 -3 -7 -68 -7 -144 0 -116 2 -138 16 -143 30 -12 259
-7 272 6 13 13 18 242 6 272 -5 14 -27 16 -143 16 -76 0 -141 -3 -144 -7z"/>
<path d="M640 1435 l0 -145 145 0 145 0 0 145 0 145 -145 0 -145 0 0 -145z"/>
<path d="M986 1564 c-9 -23 -7 -247 2 -262 7 -9 43 -12 148 -10 l139 3 0 140
0 140 -141 3 c-123 2 -142 0 -148 -14z"/>
<path d="M600 1093 c-71 -13 -96 -100 -41 -145 16 -12 43 -31 60 -40 44 -24
39 -53 -9 -52 -19 0 -47 4 -62 8 -26 8 -28 6 -28 -22 0 -26 5 -32 36 -42 53
-18 114 -7 141 25 45 51 21 115 -56 150 -66 29 -49 75 20 55 18 -5 33 -9 34
-7 6 6 25 46 25 51 0 4 -23 10 -80 20 -8 2 -26 1 -40 -1z"/>
<path d="M1999 1091 c-72 -23 -99 -63 -99 -148 0 -63 26 -114 70 -135 71 -36
161 -12 192 52 35 68 17 179 -33 212 -31 20 -96 29 -130 19z m82 -70 c20 -16
24 -28 24 -76 0 -48 -4 -60 -24 -76 -13 -10 -31 -19 -41 -19 -10 0 -28 9 -41
19 -20 16 -24 28 -24 76 0 48 4 60 24 76 13 10 31 19 41 19 10 0 28 -9 41 -19z"/>
<path d="M80 945 l0 -145 35 0 35 0 0 145 0 145 -35 0 -35 0 0 -145z"/>
<path d="M210 945 l0 -145 30 0 30 0 0 103 0 102 58 -102 57 -103 43 0 42 0 0
145 0 145 -30 0 -30 0 0 -97 0 -98 -56 98 -55 97 -45 0 -44 0 0 -145z"/>
<path d="M740 1060 c0 -28 2 -30 40 -30 l40 0 0 -115 0 -115 35 0 35 0 0 115
0 115 40 0 c38 0 40 2 40 30 l0 30 -115 0 -115 0 0 -30z"/>
<path d="M1000 945 l0 -145 35 0 35 0 0 145 0 145 -35 0 -35 0 0 -145z"/>
<path d="M1100 1060 c0 -28 2 -30 40 -30 l40 0 0 -115 0 -115 35 0 35 0 0 115
0 115 40 0 c38 0 40 2 40 30 l0 30 -115 0 -115 0 0 -30z"/>
<path d="M1370 976 c0 -108 1 -116 25 -145 31 -36 94 -49 149 -31 58 19 66 39
66 172 l0 118 -29 0 -29 0 -4 -106 c-3 -91 -6 -108 -22 -120 -26 -18 -51 -18
-70 2 -13 12 -16 38 -16 120 l0 104 -35 0 -35 0 0 -114z"/>
<path d="M1640 1060 c0 -28 2 -30 40 -30 l40 0 0 -115 0 -115 35 0 35 0 0 115
0 115 40 0 c38 0 40 2 40 30 l0 30 -115 0 -115 0 0 -30z"/>
<path d="M280 605 l0 -145 35 0 35 0 0 55 0 55 50 0 c49 0 50 1 50 30 0 29 -1
30 -50 30 -49 0 -50 1 -50 30 0 29 1 30 50 30 49 0 50 1 50 30 l0 30 -85 0
-85 0 0 -145z"/>
<path d="M500 605 l0 -145 90 0 c89 0 90 0 90 25 0 24 -3 25 -55 25 l-55 0 0
35 0 35 50 0 c49 0 50 1 50 30 0 29 -1 30 -50 30 -47 0 -50 2 -50 25 0 24 3
25 55 25 54 0 55 0 55 30 l0 30 -90 0 -90 0 0 -145z"/>
<path d="M730 605 l0 -145 78 0 c60 0 84 5 110 20 86 52 81 208 -8 252 -24 12
-59 18 -107 18 l-73 0 0 -145z m156 64 c26 -29 26 -102 -1 -128 -11 -11 -35
-23 -53 -27 l-32 -6 0 91 0 91 33 0 c22 0 41 -8 53 -21z"/>
<path d="M1030 605 l0 -145 90 0 c89 0 90 0 90 25 0 24 -3 25 -55 25 l-55 0 0
35 0 35 50 0 c49 0 50 1 50 30 0 29 -1 30 -50 30 -47 0 -50 2 -50 25 0 24 3
25 55 25 54 0 55 0 55 30 l0 30 -90 0 -90 0 0 -145z"/>
<path d="M1250 605 l0 -145 35 0 35 0 0 55 c0 71 16 71 58 0 l34 -56 76 3 c72
3 76 4 82 28 5 22 12 25 57 28 49 3 51 2 61 -28 10 -26 16 -30 47 -30 42 0 44
-17 -20 165 l-43 120 -43 0 -44 0 -47 -134 c-26 -74 -49 -136 -51 -138 -2 -2
-20 21 -40 52 l-37 54 25 25 c27 27 32 61 14 99 -16 35 -49 47 -129 47 l-70 0
0 -145z m138 58 c3 -17 -3 -26 -23 -33 -40 -15 -45 -13 -45 26 0 34 1 35 33
32 24 -2 33 -8 35 -25z m255 -20 c3 -16 9 -36 12 -45 6 -15 2 -18 -24 -18 -35
0 -35 -1 -19 51 13 46 23 50 31 12z"/>
<path d="M1800 605 l0 -145 95 0 c95 0 95 0 95 25 0 24 -3 25 -60 25 l-60 0 0
120 0 120 -35 0 -35 0 0 -145z"/>
<path d="M1350 229 c0 -109 2 -120 18 -118 9 1 29 -1 44 -5 26 -8 66 6 80 28
4 6 8 32 8 59 0 34 -6 53 -20 67 -22 22 -69 27 -88 8 -9 -9 -12 -2 -12 35 0
35 -4 47 -15 47 -13 0 -15 -20 -15 -121z m108 9 c29 -29 5 -108 -32 -108 -32
0 -53 75 -31 109 8 15 48 14 63 -1z"/>
<path d="M240 220 c0 -91 3 -110 15 -110 11 0 15 11 15 39 0 38 1 38 42 44 71
9 102 73 58 117 -15 15 -33 20 -75 20 l-55 0 0 -110z m94 74 c9 -3 16 -17 16
-30 0 -25 -26 -44 -59 -44 -18 0 -21 6 -21 40 0 36 3 40 24 40 13 0 31 -3 40
-6z"/>
<path d="M443 265 c-47 -33 -37 -133 17 -155 35 -14 90 -4 90 16 0 11 -8 13
-33 9 -25 -5 -39 -2 -50 10 -28 27 -20 35 38 35 49 0 55 2 55 21 0 23 -18 60
-34 71 -18 13 -60 9 -83 -7z m75 -37 c3 -15 -4 -18 -32 -18 -38 0 -44 8 -24
28 17 17 52 11 56 -10z"/>
<path d="M590 195 c0 -69 3 -85 15 -85 11 0 15 11 15 43 0 53 19 91 48 95 12
2 22 10 22 18 0 16 -23 18 -51 4 -13 -7 -19 -7 -19 0 0 5 -7 10 -15 10 -12 0
-15 -16 -15 -85z"/>
<path d="M720 193 c0 -67 3 -83 15 -83 12 0 15 13 15 58 0 62 11 82 46 82 27
0 34 -17 34 -86 0 -41 4 -54 15 -54 12 0 15 14 15 69 0 88 -11 101 -85 99
l-55 -2 0 -83z"/>
<path d="M923 273 c-7 -2 -13 -11 -13 -19 0 -12 8 -13 36 -8 26 5 39 3 45 -7
15 -24 10 -29 -24 -29 -41 0 -77 -25 -77 -53 0 -37 16 -50 57 -49 92 2 83 -5
83 71 0 50 -4 74 -16 85 -15 15 -65 20 -91 9z m77 -91 c0 -15 -31 -52 -44 -52
-19 0 -36 23 -28 37 11 16 72 30 72 15z"/>
<path d="M1070 195 c0 -69 3 -85 15 -85 11 0 15 12 16 43 1 60 12 91 32 95 33
7 47 -17 47 -79 0 -45 3 -59 15 -59 10 0 15 16 17 61 3 65 19 88 52 76 12 -5
16 -20 16 -72 0 -51 3 -65 15 -65 12 0 15 15 15 73 0 43 -5 78 -12 85 -15 15
-74 16 -83 2 -4 -7 -12 -7 -25 0 -25 14 -63 13 -78 -2 -9 -9 -12 -9 -12 0 0 7
-7 12 -15 12 -12 0 -15 -16 -15 -85z"/>
<path d="M1540 205 c0 -68 2 -76 25 -91 17 -11 33 -14 57 -8 18 4 39 7 46 5 9
-1 12 21 12 84 0 69 -3 85 -15 85 -12 0 -15 -14 -15 -63 0 -65 -11 -87 -42
-87 -25 0 -38 31 -38 94 0 43 -3 56 -15 56 -12 0 -15 -15 -15 -75z"/>
<path d="M1742 257 c-32 -34 -30 -99 3 -132 33 -34 95 -32 95 2 0 11 -7 13
-29 8 -23 -5 -32 -2 -45 17 -35 49 -7 105 46 94 24 -5 29 -3 26 12 -5 28 -69
28 -96 -1z"/>
<path d="M1893 265 c-47 -33 -37 -133 16 -155 59 -24 111 14 111 81 0 74 -70
114 -127 74z m74 -23 c24 -15 26 -66 5 -92 -17 -22 -23 -23 -46 -12 -21 9 -26
18 -26 50 0 53 30 77 67 54z"/>
</g>
</svg>
